<svg xmlns="http://www.w3.org/2000/svg" viewBox="0 0 356.99 419.8"><defs><style>.cls-1{fill:#ffa546}.cls-2{fill:#ff6059;opacity:.4}.cls-3{fill:#426572}</style></defs><g id="Layer_2" data-name="Layer 2"><g id="Layer_1-2" data-name="Layer 1"><path class="cls-1" d="M351 380.73v17.59a15.52 15.52 0 01-15.47 15.48H21.46A15.52 15.52 0 016 398.32v-17.59a15.51 15.51 0 0115.47-15.47h314.05A15.51 15.51 0 01351 380.73z"/><path class="cls-2" d="M351 406.85c0 3.95-7 7.19-15.47 7.19H21.46C13 414 6 410.8 6 406.85v-26.12a15.51 15.51 0 0115.47-15.47h16.19l3.44 25.27c0 4 7 7.2 15.47 7.2l283.72 12.44 7.38-2.28z"/><path class="cls-3" d="M335.52 419.8H21.46A21.5 21.5 0 010 398.32v-17.59a21.49 21.49 0 0121.46-21.47h314.06A21.49 21.49 0 01357 380.73v17.59a21.52 21.52 0 01-21.46 21.48zM21.46 371.26a9.48 9.48 0 00-9.46 9.47v17.59a9.48 9.48 0 009.46 9.48h314.06a9.52 9.52 0 009.46-9.48v-17.59a9.48 9.48 0 00-9.46-9.47z"/><path class="cls-1" d="M247.93 138h-14.7V41.7A35.7 35.7 0 00197.53 6h-38.08a35.7 35.7 0 00-35.7 35.7V138h-14.69c-29.06 0-47.22 31.48-32.69 56.64l34.72 60.13 30 52c16.6 28.76 58.12 28.76 74.72 0l30-52 34.72-60.13C295.14 169.48 277 138 247.93 138z"/><path class="cls-2" d="M280.62 188l-34.73 60.13-30 52c-11.24 19.46-66.68 32.78-52.52 18.88 60.22-59.12 104.3-182.16 104.3-182.16A37.74 37.74 0 01280.62 188z"/><path d="M192.3 6c-.22.23-.42.47-.63.72-38.92 45-18.36 116.49-42.85 170.71-10.14 22.45-29.18 41.51-52.15 49.48L78 194.64C63.52 169.48 81.67 138 110.72 138h14.7V41.7A35.7 35.7 0 01161.12 6z" style="fill:#ffd947"/><path class="cls-3" d="M178.49 334.39a48.64 48.64 0 01-42.56-24.57L71.17 197.64A43.75 43.75 0 01109.06 132h8.69V41.7A41.74 41.74 0 01159.45 0h38.09a41.75 41.75 0 0141.7 41.7V132h8.69a43.75 43.75 0 0137.89 65.62L221 309.82a48.64 48.64 0 01-42.51 24.57zM109.06 144a31.75 31.75 0 00-27.49 47.62l64.76 112.17a37.14 37.14 0 0064.33 0l64.76-112.17a31.75 31.75 0 00-27.5-47.62h-20.69V41.7a29.73 29.73 0 00-29.7-29.7h-38.08a29.73 29.73 0 00-29.7 29.7V144z"/></g></g></svg>