<svg xmlns="http://www.w3.org/2000/svg" viewBox="0 0 379.47 510.81"><defs><style>.cls-2{fill:#ceea57}.cls-3{fill:#213346}.cls-4{fill:#95bc4a}.cls-11,.cls-6{fill:#fff}.cls-11{opacity:.5}.cls-12{fill:#f6aecd}.cls-14{fill:#7662fa}</style></defs><g id="Layer_2" data-name="Layer 2"><g id="Layer_1-2" data-name="Layer 1"><ellipse cx="191.74" cy="457.95" rx="179.73" ry="52.86" style="fill:#dfe7ea"/><circle class="cls-2" cx="334.64" cy="271.05" r="40.33"/><path class="cls-3" d="M334.64 314.49a44.83 44.83 0 1144.83-44.83 44.88 44.88 0 01-44.83 44.83zm0-80.66a35.83 35.83 0 1035.83 35.83 35.87 35.87 0 00-35.83-35.83z"/><path class="cls-3" d="M356.42 273.33a3 3 0 01-2.93-2.41c-3.92-19.6-23.82-16.39-24.67-16.24a3 3 0 01-1.05-5.91c9.15-1.63 27.53.65 31.6 21a3 3 0 01-2.35 3.53 3.05 3.05 0 01-.6.03z"/><circle class="cls-2" cx="44.83" cy="269.05" r="40.33"/><path class="cls-4" d="M76.23 244.43a40.32 40.32 0 00-55.79 55.79 40.33 40.33 0 1155.79-55.79z"/><path class="cls-3" d="M44.83 312.49a44.83 44.83 0 1144.83-44.83 44.88 44.88 0 01-44.83 44.83zm0-80.66a35.83 35.83 0 1035.83 35.83 35.87 35.87 0 00-35.83-35.83z"/><path class="cls-2" d="M188.76 62h2.72a142.34 142.34 0 01142.34 142.34v92.6a143.7 143.7 0 01-143.7 143.7 143.7 143.7 0 01-143.7-143.7v-92.6A142.34 142.34 0 01188.76 62z"/><path class="cls-4" d="M208.37 437.76a143.43 143.43 0 01-19.77 1.37c-79 0-143.71-64.66-143.71-143.71v-94.48c0-77.25 63.22-140.46 140.47-140.46h6.48a136.88 136.88 0 0116.53 1c-69.55 8.23-123.94 67.81-123.94 139.46v94.48c0 72.34 54.15 132.64 123.94 142.34z"/><path class="cls-3" d="M188.6 445.15A148.62 148.62 0 0140.39 296.94v-92.6A147.26 147.26 0 01187.24 57.5H190a147.26 147.26 0 01146.8 146.84v92.6a148.62 148.62 0 01-148.2 148.21zM187.24 66.5A138.26 138.26 0 0049.39 204.34v92.6a139 139 0 00237.52 98.31 138.2 138.2 0 0040.89-98.31v-92.6A138.24 138.24 0 00190 66.5z"/><path d="M319.19 272.92v.18c-.54.02-.33-.1 0-.18z" style="fill:#bfe1ee"/><path class="cls-3" d="M20.84 273.92a2.31 2.31 0 01-.37 0 3 3 0 01-2.61-3.34c1.7-13.89 7.61-20.76 12.26-24.07a20.44 20.44 0 0110.38-4 3 3 0 01.23 6c-.63 0-14.25 1.06-16.92 22.76a3 3 0 01-2.97 2.65zM190.57 306.5a3 3 0 01-3-3v-46.59a3 3 0 116 0v46.59a3 3 0 01-3 3z"/><path class="cls-6" d="M40.94 365.6c.72-3.5 2.66-5.94 4-5.52s1.67 3.31 1 6.55-2.1 5.77-3.51 5.62-2.21-3.15-1.49-6.65zM42.16 403.44a49.43 49.43 0 01-1.78-14.27c.14-3.7.8-5.95 1.48-6 1.47 0 2.43 8.7 5.23 18.9s6.3 18.17 5 18.93c-.59.34-2.31-1.26-4.31-4.37a48.78 48.78 0 01-5.62-13.19z"/><path d="M137.75 2.51a33.77 33.77 0 00-24.37 10.94 34 34 0 00-41.26 46 34 34 0 1038.79 54.36 34 34 0 0054.73-27.46c0-.39 0-.78-.06-1.17a34 34 0 107.68-66.91 34.46 34.46 0 00-5.87.62 33.92 33.92 0 00-29.64-16.38z" style="fill:#f5a2c6"/><path d="M89.32 49.48a33.74 33.74 0 002.8 12.94 34 34 0 006.82 64 34.92 34.92 0 01-6.91.82 34 34 0 01-14.91-64.82 34 34 0 0130.57-47.49 34.27 34.27 0 018.1.82 34 34 0 00-26.47 33.73z" style="fill:#d676a3"/><path class="cls-3" d="M86.42 130.69A38.47 38.47 0 0166.54 59.3a38.47 38.47 0 0136.07-49.87 38.62 38.62 0 019.42 1A38 38 0 01137.67 0a38.68 38.68 0 0131.88 16c1.2-.14 2.42-.22 3.63-.24a38.47 38.47 0 0128.34 65.18 38.17 38.17 0 01-27 11.75 40.18 40.18 0 01-4.53-.19 38.46 38.46 0 01-58.66 29.07 38.09 38.09 0 01-24.22 9.13zm16.87-112.27h-.53a29.45 29.45 0 00-28.94 30 29 29 0 002.43 11.22l1.75 4-4 1.86a29.47 29.47 0 1033.65 47.16l2.8-2.92 3.2 2.48a29.45 29.45 0 0047.49-23.82v-.87l-.53-6.29 6.12 1.55a29.47 29.47 0 106.65-58.05 28.71 28.71 0 00-5.08.54l-3.08.6-1.63-2.68A29.59 29.59 0 00137.83 9a29.21 29.21 0 00-21.14 9.5l-1.93 2.09-2.76-.84a29.32 29.32 0 00-8.71-1.33zm34.46-13.91z"/><path class="cls-3" d="M225.1 107.59L226.73 112.26 221.44 110.12 233.38 107.94 235.94 107.48 236.58 109.21 243.09 126.94 231.9 111.73 235.06 112.98 224.2 118.39 221.46 119.76 218.98 116.27 215.87 111.89 194.8 82.23 205.66 66.03 225.1 107.59zM81.49 154.74L81.53 157.94 84.27 155.47 76.54 156.78 74.89 157.06 74.88 158.25 74.82 170.43 78.27 158.75 76.63 160.2 84.41 161.1 86.37 161.33 87.11 158.67 88.04 155.33 95.65 128.68 84.16 125.25 81.49 154.74zM197.95 122.51L197.9 126.47 194.51 123.42 204.09 125.03 206.15 125.38 206.16 126.86 206.23 141.99 201.95 127.48 203.99 129.29 194.33 130.4 191.89 130.68 190.97 127.38 189.82 123.23 180.37 90.14 194.63 85.89 197.95 122.51zM149.78 144.16L144.65 143.61 144.93 142.63 148.61 118.63 135.56 121.73 137.8 143.28 138.05 145.98 138.25 148.13 140.4 147.9 147.64 147.1 148.59 155.26 151.23 145.32 151.49 144.35 149.78 144.16z"/><circle class="cls-3" cx="241.03" cy="227.35" r="41.06"/><rect x="238.09" y="225.78" width="15.99" height="86.04" rx="6.5" style="fill:#f9637c"/><path d="M249.78 310.38a5.81 5.81 0 01-3.69 1.43c-4.42 0-8-5.69-8-12.71v-60.62c0-7 3.58-12.7 8-12.7a5.8 5.8 0 013.69 1.42c-2.56 2.13-4.31 6.38-4.31 11.28v60.62c0 4.9 1.75 9.15 4.31 11.28z" style="fill:#cc3656"/><path class="cls-3" d="M246.09 314.81a11 11 0 01-11-11v-70a11 11 0 0122 0v70a11 11 0 01-11 11zm0-86a5 5 0 00-5 5v70a5 5 0 1010 0v-70a5 5 0 00-5-5.03z"/><path class="cls-6" d="M296.05 131.36a75.23 75.23 0 016 11c.74 1.78 1.43 3.47 1.95 5.11s1 3.16 1.31 4.57c1.35 5.68 1.2 9.35.22 9.6-2.16.52-6.69-12.4-15.84-26.1-9-13.81-19.06-23.07-17.73-24.84.61-.81 4.05.51 8.73 4 1.17.87 2.42 1.86 3.69 3s2.58 2.43 3.93 3.81a76.62 76.62 0 017.74 9.85zM313.3 178.31c.48 2.42-.82 4.71-2.89 5.12s-4.15-1.22-4.62-3.64.82-4.72 2.9-5.13 4.14 1.23 4.61 3.65zM317 202.62c.54 4.11-.73 7.66-2.82 7.94s-4.24-2.84-4.77-6.94.73-7.66 2.83-7.94 4.24 2.84 4.76 6.94z"/><circle class="cls-11" cx="229.78" cy="343.53" r="5.28"/><path class="cls-12" d="M138 52.68a29 29 0 00-19.37-.87c-4.89 1.53-7.35 3.77-7.61 3.46-.11-.12.35-.84 1.49-1.84a19.53 19.53 0 015.49-3.32 27.32 27.32 0 019.38-1.92 29 29 0 0111.56 2.13 27.34 27.34 0 019.7 6.66 27.9 27.9 0 015.25 8 23.39 23.39 0 011.74 6.16c.19 1.49.1 2.34-.06 2.36-.42.07-.9-3.21-3.31-7.74a30.26 30.26 0 00-5.31-7.14 27.38 27.38 0 00-8.95-5.94zM108.26 80.3a20.07 20.07 0 015.12-6.47 17.38 17.38 0 015.9-3.25 12.35 12.35 0 014.47-.59c1.06.08 1.62.29 1.61.45 0 .42-2.29.4-5.44 1.83a19 19 0 00-5 3.33 20.41 20.41 0 00-4.38 5.83 30 30 0 00-2.72 13.22c0 3.56.27 5.81-.11 5.89s-1.22-2.07-1.69-5.78a27.59 27.59 0 010-6.59 24.21 24.21 0 012.24-7.87zM140.43 20.33a25.58 25.58 0 017.06 2.46 15.34 15.34 0 014.81 3.92 8.61 8.61 0 011.76 3.83c.16 1 0 1.54-.14 1.56-.41.07-.75-2-3-4.19a16.3 16.3 0 00-4.52-3 28.82 28.82 0 00-6.48-2.05 20.5 20.5 0 00-6.69-.31 13.86 13.86 0 00-5.09 1.69c-2.71 1.55-3.75 3.39-4.09 3.2-.15-.07-.09-.63.35-1.52a9.55 9.55 0 012.73-3.17 13.55 13.55 0 015.72-2.52 19.9 19.9 0 017.58.1zM186.89 58.43a31.33 31.33 0 001.87-9.7 11.92 11.92 0 00-2.48-7.23 38.35 38.35 0 00-3.72-4.12c-.95-1-1.44-1.54-1.33-1.68s.8.18 2 .91a22.1 22.1 0 014.49 3.76 12.88 12.88 0 013.43 8.27 30.14 30.14 0 01-1.79 10.58 20.67 20.67 0 01-2.38 5.16 14 14 0 01-3.87 3.81 16.85 16.85 0 01-8.49 2.65 18 18 0 01-5.85-.68c-1.33-.39-2-.81-1.95-1 .1-.41 3 .43 7.63-.16a16.46 16.46 0 007.33-2.79 12.18 12.18 0 003.07-3.21 19.79 19.79 0 002.04-4.57zM85.1 87.16a13.11 13.11 0 01-4.1-8.6c-.12-2.47.54-3.89.85-3.83s.39 1.48.94 3.56a14 14 0 0011.29 10.63c2.11.43 3.54.36 3.61.74s-1.3 1-3.78 1.06a13.1 13.1 0 01-8.81-3.56zM133 92.83a24.28 24.28 0 004.74-.43 20 20 0 002-.52 16.5 16.5 0 001.73-.6c2.1-.83 3.36-1.6 3.61-1.3s-.66 1.54-2.78 2.91a13.24 13.24 0 01-1.81 1 16.71 16.71 0 01-2.21.82 18.08 18.08 0 01-10.7-.22 16.23 16.23 0 01-2.18-.92 11.2 11.2 0 01-1.76-1c-2.06-1.46-2.88-2.81-2.66-3s1.49.54 3.55 1.46c.52.22 1.08.47 1.71.67s1.3.4 2 .6a24.26 24.26 0 004.76.53zM104.17 42.92a20.9 20.9 0 014-4 17.67 17.67 0 012.09-1.33 12.45 12.45 0 012-.9c2.48-.93 4.14-.86 4.19-.55s-1.36.94-3.41 2.17a17.51 17.51 0 00-1.62 1.08c-.58.38-1.13.88-1.74 1.37a23.08 23.08 0 00-6 8.07c-.29.72-.6 1.4-.8 2.06s-.4 1.29-.55 1.87c-.59 2.31-.7 3.86-1.09 3.89s-.86-1.53-.7-4.17a13.28 13.28 0 01.3-2.13 16.39 16.39 0 01.66-2.4 20.41 20.41 0 012.67-5.03zM163.78 45.73a23.94 23.94 0 001.71-3.89 22.19 22.19 0 00.81-3.4c.32-2 .34-3.32.72-3.38s.95 1.21 1.09 3.46a14.52 14.52 0 01-.35 3.94 16.69 16.69 0 01-4.76 8.36 14.36 14.36 0 01-3.2 2.32c-2 1-3.43 1.14-3.54.85s1-1.06 2.54-2.35a22.65 22.65 0 002.5-2.45 23.79 23.79 0 002.48-3.46z"/><path class="cls-6" d="M173.73 70.51a21.63 21.63 0 008.47-4.27c1.93-1.57 3-3 3.68-2.73.32.11.49.65.41 1.55a8.73 8.73 0 01-1.32 3.5 16.46 16.46 0 01-10 6.9 22.68 22.68 0 01-11.76-.33c-2.83-.87-4.37-1.93-4.22-2.6s2-.89 4.71-1a47.09 47.09 0 0010.03-1.02zM186.07 51.39c.2-1.77 1.49-3.08 2.89-2.93s2.38 1.72 2.19 3.49-1.49 3.08-2.89 2.92-2.38-1.71-2.19-3.48zM183.86 41.8a2.6 2.6 0 014.14-3 2.61 2.61 0 01-4.14 3z"/><path d="M330 302c20.28 37 13.83 73.05 14.54 107.47l-11-12.15a118.62 118.62 0 01-28.8 57.47 42.38 42.38 0 00-13.34-14.7A89.09 89.09 0 01263.9 487a35.8 35.8 0 00-1-29.59 56.4 56.4 0 01-30.8 34.29 23.17 23.17 0 002.52-22.37c-11.17 19-43.3 19.54-55.14 1-.82 3.75-.22 8.67 3.61 9-16.11 2.48-30.85-4.3-41.93-16.25a27.05 27.05 0 009 17.56 49.18 49.18 0 01-40.92-27.17c-20.77 1.29-41.53-12.94-47.8-32.79a9.91 9.91 0 01-2.59 9.51c-35.89-18.22-34-99.94-10.46-126.89 0 0 49.48 7.94 79.51 30.74 6.43 4.88 14.43-4.6 23.27-7.4 17.51-5.53 38.32-11.15 56.88-11.22 23.39-.1 35.9 29.56 50.89 15.49 39.63-37.26 70.7-29.52 71.06-28.91z" style="fill:#86b9f8"/><path class="cls-14" d="M345.91 405.22l-11-12.16a118.76 118.76 0 01-28.81 57.48 42.3 42.3 0 00-13.34-14.7 89 89 0 01-27.51 46.89 35.83 35.83 0 00-1-29.59 56.4 56.4 0 01-30.8 34.29 23.2 23.2 0 002.55-22.37c-11.17 19-43.3 19.54-55.14 1-.83 3.75.11 17.55 3.94 17.87-16.1 2.48-31.18-13.18-42.26-25.13.64 6.7 2.31 18.78 7.36 23.23-17.16-.88-31.84-17.37-39.3-32.84-20.78 1.29-41.53-12.95-47.8-32.79a9.91 9.91 0 01-2.58 9.51c-12.41-6.3-20.59-20-25-36.31 15.87 11.57 34.55 19.51 53 26.63 12.54 4.82 25.24 9.42 38.46 11.83 12.82 2.33 25.92 2.56 39 2.79 36.17.62 73.84.94 106.53-14.59 9.37-4.45 19.26-12.08 18.93-22.46-.37-11.86-13.35-18.63-24.42-22.88 23.58-3.5 42.91-21.78 53.67-43.05a131.59 131.59 0 009.48-25.3L333 305c9.73 34 12.19 65.81 12.91 100.22z"/><path class="cls-3" d="M253.41 500.93l7.73-18.34a31 31 0 002.25-14.75 61 61 0 01-28.12 25.32l-15.22 6.65 9.79-13.42a18.51 18.51 0 003.37-9.49 38.29 38.29 0 01-24.46 8.83 39.29 39.29 0 01-20.87-5.26c1 5.16.93 9.73-3.16 11.61l-1.89.86-1.88-.86c-13-6-23.27-12.19-31.89-19.33 1.42 5.57 3 7.6 3.8 8.31l9.71 8.53-12.91-.66c-18.37-.93-33.64-18.1-41.8-33.56-17.77 0-34.88-10-44.23-24.92l-.28.28L61 433l-2.87-1.46c-13.73-7-23.61-22.79-27.84-44.54-6.17-31.81.86-70.33 16-87.71a4.5 4.5 0 116.78 5.92c-13.31 15.26-19.57 51.18-14 80.07 3.26 16.82 10.08 29.4 19.38 36a5.07 5.07 0 00-.1-2.09l8.63-2.54c5.62 17.79 24.6 30.81 43.23 29.66l3-.19 1.31 2.72c7.38 15.29 17.47 24.65 26.45 28.73a83.68 83.68 0 01-3-16.73l-1.27-13.24 9.05 9.75c8.53 9.2 18.86 16.65 33 23.73-.31-1.46-.69-2.95-1-4-1.25-5-1.93-7.92-1.4-10.33l2.33-10.64 5.86 9.18c4.71 7.38 13.68 11.69 24 11.5s19.08-4.81 23.52-12.35l4.51-7.66 3.51 8.17a27.18 27.18 0 012 13.86A51.87 51.87 0 00260 453.4l3.32-10.56 5 9.88a40 40 0 014.21 17.36 84.32 84.32 0 0015.89-33.6l1.43-6.48 5.49 3.72a47 47 0 0111.36 10.93 115.09 115.09 0 0023.84-50.82l1.7-8.88 10 11.05c2-35.79-3.31-65-16.46-91.39a4.5 4.5 0 118-4C349 331 354.25 364.9 350.39 407.23l-.93 10.24-12.07-13.36a122.34 122.34 0 01-27.94 51.07l-4.26 4.65-3-5.53a37.69 37.69 0 00-6.81-9 93.54 93.54 0 01-27.08 42.37z"/><path class="cls-2" d="M159.69 399.62a9.74 9.74 0 01-9.71-9.71v-37.15a9.74 9.74 0 019.71-9.71h68a9.75 9.75 0 019.72 9.71v37.15a9.75 9.75 0 01-9.72 9.71"/><path class="cls-4" d="M239 356.81v11.52a9.75 9.75 0 00-8.91-5.85h-68a9.74 9.74 0 00-9.71 9.71v25.63a9.65 9.65 0 01-.81-3.87v-37.14a9.75 9.75 0 019.71-9.72h68a9.76 9.76 0 019.72 9.72z"/><path class="cls-3" d="M193.29 341.91c7 0 13.87 0 20.49.1l9.74.12h4.31l.85.06a14.26 14.26 0 016.29 2.29 14.06 14.06 0 016.23 10.73v2.5c0 .7 0 1.41-.05 2.11 0 1.39-.09 2.77-.13 4.12-.17 5.41-.37 10.45-.59 15s-.45 8.76-.71 12.42c0 .45-.07.9-.1 1.34 0 .22 0 .44-.05.66s-.05.52-.08.78a11.57 11.57 0 01-.74 3 11.41 11.41 0 01-3 4.24 9.64 9.64 0 01-6.23 2.57 4.68 4.68 0 01-1.7-.26c-.38-.14-.55-.3-.55-.46s.17-.34.49-.52l1.35-.66a10.23 10.23 0 003.89-3.22 8.51 8.51 0 001.34-3.09 8 8 0 00.12-1.84v-.5c0-.22 0-.44-.05-.66l-.09-1.34c-.26-3.66-.5-7.82-.72-12.42s-.41-9.63-.59-15c0-1.35-.08-2.73-.12-4.12l-.06-2.11v-1.8a5.41 5.41 0 00-4.95-4.71h-4.28l-9.74.12c-6.62.06-13.47.1-20.49.1s-13.87 0-20.48-.1l-9.74-.12H158.86a5.42 5.42 0 00-4.94 4.71v1.8c0 .7 0 1.41-.05 2.11 0 1.39-.09 2.77-.13 4.12-.17 5.41-.37 10.45-.59 15s-.46 8.76-.71 12.42c0 .45-.07.9-.1 1.34V393.9a7.43 7.43 0 00.13 1.84 8.18 8.18 0 001.34 3.09 10.21 10.21 0 003.88 3.22l1.35.66c.32.18.5.35.5.52s-.18.32-.55.46a4.74 4.74 0 01-1.99.31 9.6 9.6 0 01-6.22-2.57 11.32 11.32 0 01-3-4.24 12 12 0 01-.74-3c0-.26-.06-.57-.08-.78s0-.44-.05-.66l-.09-1.34c-.26-3.66-.5-7.82-.72-12.42s-.41-9.63-.59-15c0-1.35-.08-2.73-.12-4.12l-.06-2.11v-2.5a14.08 14.08 0 016.22-10.73 14.31 14.31 0 016.29-2.29l.86-.06h4.31l9.74-.12c6.67-.06 13.53-.15 20.54-.15zM60.39 322a37.09 37.09 0 00.47 9 37.78 37.78 0 002.92 8.91 39.35 39.35 0 01-5.49-8 40.74 40.74 0 01-3.29-9.54 44.5 44.5 0 01-1-10.27 49.21 49.21 0 01.4-5.25 33.42 33.42 0 011.13-5.44l10 4.36a23.19 23.19 0 00-1.89 3.53 41.21 41.21 0 00-1.54 4 38.35 38.35 0 00-1.71 8.7zM75.3 330.15c.78 7.09 3.93 14.18 8.49 20.33A45.39 45.39 0 0170 331.43 37.16 37.16 0 0167.79 319a33.53 33.53 0 012.53-13l9.59 5.16c-3.71 4.84-5.4 11.96-4.61 18.99zM102.41 335.48A49 49 0 00109 355a51.46 51.46 0 01-11.83-18.14 54.08 54.08 0 01-3.61-22.51l10.73 1.85a45.78 45.78 0 00-1.88 19.28zM279.1 331.6a25.9 25.9 0 01-.28 8.41c-.49 2.14-1.22 3.39-1.88 3.33-1.37-.13-2-5.16-2.7-11.16s-1.3-11 0-11.49c.63-.2 1.64.84 2.61 2.8a25.74 25.74 0 012.25 8.11zM300.7 325.92a34.06 34.06 0 01-2.28 11.66c-1.17 2.83-2.4 4.35-3 4.13-1.32-.5.23-7.41.4-15.92s-.91-15.49.43-15.91c.62-.19 1.77 1.39 2.79 4.28a34.18 34.18 0 011.66 11.76zM323.44 322.4a51.55 51.55 0 01.48 8.84 42.08 42.08 0 01-.84 7.17c-.86 4-2 6.32-2.66 6.19-1.41-.31-.09-10-1.83-21.5s-5.47-20.53-4.18-21.19c.58-.3 2.31 1.61 4.22 5.24a44.14 44.14 0 012.79 6.64 53.12 53.12 0 012.02 8.61zM68.8 420.47a39.61 39.61 0 01-.25-8.28 35.94 35.94 0 01.5-3.58 25.93 25.93 0 01.76-3c1.14-3.68 2.57-5.64 3.16-5.43s.45 2.52.24 6.05c0 .89-.12 1.85-.12 2.88v3.28a59.18 59.18 0 002.11 14.73c.33 1.1.6 2.17.94 3.14s.63 1.89.92 2.73c1.2 3.32 2 5.46 1.47 5.87s-2.43-1.11-4.56-4.32a23.37 23.37 0 01-1.57-2.71 33.94 33.94 0 01-1.49-3.3 40.12 40.12 0 01-2.11-8.06zM99.55 433.75a50.42 50.42 0 01-.07-13.35c.45-3.36 1.12-5.4 1.79-5.39s1.24 2.09 1.67 5.4.77 7.81 1.45 12.64c.35 2.41.78 4.67 1.25 6.7.27 1 .47 2 .76 2.85l.38 1.3c.14.41.27.8.39 1.18 1 3 1.81 4.94 1.24 5.37s-2.36-.88-4.34-3.84c-.24-.37-.49-.77-.74-1.18s-.46-.87-.7-1.33a28 28 0 01-1.31-3.05 39.4 39.4 0 01-1.77-7.3zM136.2 440.16c-4-14.35-4.59-26.51-3.28-26.67s4.05 11.36 8 25.35 7.6 25.27 6.32 25.82-7.04-10.13-11.04-24.5zM244.41 451.81c1.82-6.05 3.09-11.74 4.22-15.84s2.08-6.65 2.75-6.55.91 2.79.66 7.11a75.23 75.23 0 01-2.94 16.7 56.28 56.28 0 01-3.52 8.82c-.71 1.29-1.35 2.52-2.1 3.61-.37.54-.71 1.07-1.06 1.56l-1.08 1.38c-2.84 3.46-5.24 4.92-5.69 4.49s.9-2.74 2.8-6.4c.24-.45.48-.93.74-1.43l.74-1.58c.54-1.08 1-2.29 1.55-3.52 1.01-2.52 2.01-5.33 2.93-8.35zM273 440.9c1.29-7.37 2-14.28 2.87-19.27s1.74-8 2.41-8 1 3.21 1 8.27a116.76 116.76 0 01-1.5 19.83 57.15 57.15 0 01-2.95 10.79 40 40 0 01-4.24 8.17c-3 4.36-5.79 6.2-6.23 5.76s1.21-3.06 3.23-7.47a65 65 0 003-7.94A85.72 85.72 0 00273 440.9zM301.86 422.49c1.43-6 2.41-11.53 3.33-15.56s1.76-6.53 2.43-6.46 1 2.67 1 6.86a74.69 74.69 0 01-2 16.31 56.91 56.91 0 01-2.88 8.73c-.61 1.29-1.15 2.53-1.8 3.62-.31.55-.6 1.09-.91 1.59l-.95 1.41c-2.48 3.54-4.67 5.16-5.16 4.77s.59-2.76 2.14-6.45l.6-1.45q.3-.76.6-1.59c.45-1.08.82-2.28 1.26-3.51.8-2.51 1.61-5.3 2.34-8.27z"/><path class="cls-3" d="M311.64 413.48c1.55-3.78 2.81-7.46 3.86-10.85.48-1.71 1-3.33 1.35-4.87s.75-3 1.06-4.28c1.21-5.28 1.85-8.64 2.57-8.62s1.22 3.49.85 9.12c-.1 1.41-.23 2.95-.5 4.59s-.58 3.38-1 5.21a72.61 72.61 0 01-9.28 22.38c-1 1.56-2 3-3 4.36s-2 2.53-2.89 3.59c-3.73 4.24-6.6 6.27-7.06 5.84s1.41-3.32 4.28-7.9c.72-1.15 1.51-2.4 2.29-3.78s1.62-2.84 2.49-4.39c1.68-3.13 3.4-6.63 4.98-10.4z"/><path class="cls-6" d="M42.94 339.6c.72-3.5 2.66-5.94 4-5.52s1.67 3.31 1 6.55-2.1 5.77-3.51 5.62-2.21-3.15-1.49-6.65zM44.16 377.44a49.43 49.43 0 01-1.78-14.27c.14-3.7.8-5.95 1.48-6 1.47 0 2.43 8.7 5.23 18.9s6.3 18.17 5 18.93c-.59.34-2.31-1.26-4.31-4.37a48.78 48.78 0 01-5.62-13.19z"/><path class="cls-3" d="M128.52 338.8H128c-5-.18-8.88-3.13-12-5.51l-.19-.14a150.17 150.17 0 00-65.16-28.23 4.5 4.5 0 011.54-8.92 159.48 159.48 0 0169.08 30l.19.15c2.35 1.77 4.77 3.61 6.9 3.69s4.58-1.53 7.15-3.22l.75-.49c14.75-9.64 33.89-14.95 53.9-14.95 20 0 39.15 5.31 53.9 14.95l.74.48c2.58 1.7 5 3.3 7.15 3.23s4.56-1.92 6.9-3.69l.19-.15a159.59 159.59 0 0169.09-30 4.5 4.5 0 011.52 8.88 150.17 150.17 0 00-65.16 28.23l-.19.14c-3.13 2.38-7 5.33-12 5.51s-9.12-2.53-12.42-4.7l-.71-.47c-27.47-17.94-70.5-17.94-98 0l-.72.47c-3.18 2.14-7.13 4.74-11.93 4.74zM210.09 385.31h-36a3.5 3.5 0 110-7h36a3.5 3.5 0 010 7z"/><circle class="cls-14" cx="256.32" cy="340.31" r="34.5"/><circle class="cls-6" cx="246.03" cy="330.35" r="40.04"/><circle class="cls-11" cx="250.78" cy="312.53" r="5.28"/><path class="cls-3" d="M141.26 29.28L141.29 32.05 143.66 29.92 136.97 31.05 135.54 31.29 135.53 32.32 135.48 42.88 138.47 32.75 137.05 34.01 143.79 34.79 145.49 34.99 146.13 32.68 146.93 29.79 152.37 10.18 143.58 3.72 141.26 29.28zM131.05 92.41L129.84 89.02 133.69 90.55 125.03 92.19 123.17 92.54 122.7 91.28 117.89 78.43 126.08 89.43 123.78 88.53 131.65 84.56 133.64 83.55 135.46 86.07 137.73 89.24 153.18 110.69 145.37 122.52 131.05 92.41z"/><circle class="cls-3" cx="123.96" cy="232.98" r="22.91"/><circle class="cls-2" cx="134.18" cy="215.95" r="12.7"/><circle class="cls-6" cx="114.77" cy="241.53" r="5.28"/><circle class="cls-3" cx="242.84" cy="330.2" r="15.77"/><circle class="cls-6" cx="255.89" cy="340.77" r="10.18"/></g></g></svg>