<svg xmlns="http://www.w3.org/2000/svg" viewBox="0 0 586.2 682.51"><defs><style>.cls-1{fill:#dfe7ea}.cls-2{fill:#b0d7e9}.cls-3{fill:#54b9d3}.cls-4{fill:#f2c7a5}.cls-20,.cls-5{opacity:.5}.cls-6{fill:#ffac89}.cls-14,.cls-7{fill:none;stroke-miterlimit:10;stroke-width:10px}.cls-7{stroke:#274b5b}.cls-20{fill:#ef997b}.cls-10{fill:#fff}.cls-11{fill:#274b5b}.cls-12{fill:#3b535c}.cls-14{stroke:#42565e;stroke-linecap:round}.cls-17{fill:#3f565e}.cls-18{fill:#f2dcca}</style></defs><g id="Layer_2" data-name="Layer 2"><g id="Layer_1-2" data-name="Layer 1"><ellipse class="cls-1" cx="289.02" cy="618.52" rx="184.33" ry="54.22"/><path class="cls-2" d="M518.48 204.9l16.76 4.24 42.08 10.65a7.19 7.19 0 012.5 12.76L516.64 279a7.19 7.19 0 00-.88 10.82l54.39 55.65a7.19 7.19 0 01-1.52 11.23l-60.92 35.54a7.19 7.19 0 00-3 9l23.9 56.16a7.19 7.19 0 01-7.12 10l-73.11-8.4-305.16 3.1-75.42 5.34a7.19 7.19 0 01-7.12-10l23.9-56.16a7.19 7.19 0 00-3-9l-60.91-35.55a7.19 7.19 0 01-1.52-11.23l54.39-55.65a7.19 7.19 0 00-.89-10.85L9.48 232.55A7.19 7.19 0 0112 219.79l44.73-11.32 23.55-6 45.5-11.47-35.68-83.28A7.19 7.19 0 0198.83 98l119.89 37.21L233.83 14.4a7.19 7.19 0 0113.82-1.75l45.43 114.84"/><path class="cls-2" d="M492 198.21L463.51 191l35.69-83.27a7.19 7.19 0 00-8.74-9.7l-119.89 37.2-6.09-48.76-3.73-29.86-5.29-42.21a7.19 7.19 0 00-13.82-1.75l-45.42 114.83-7.39 3.1"/><path class="cls-3" d="M233 368q0 46-1.73 92l-86.5.88-75.42 5.37a7.2 7.2 0 01-7.13-10l23.9-56.17a7.17 7.17 0 00-3-9l-60.91-35.56a7.2 7.2 0 01-1.52-11.25l54.39-55.64a7.18 7.18 0 00-.88-10.81L11 231.34a7.19 7.19 0 012.49-12.76l44.74-11.32 23.56-5.95 45.51-11.52-35.66-83.29a7.19 7.19 0 018.75-9.7L142 109.72c-2 20.85-.12 41.93 7.5 61.34 3.36 8.54 7.81 16.73 10 25.65 4.38 18.17-1.25 37.39-10 53.89s-20.63 31.17-30.05 47.31c-5.36 9.22-10 19.27-10.24 29.93s5 22 14.75 26.29c14.89 6.55 31.1-5.22 42.57-16.76S192 312.6 207.88 316c10.25 2.17 18 11.15 21.52 21s3.6 20.54 3.6 31z"/><circle class="cls-4" cx="145.54" cy="410.18" r="47.25"/><g class="cls-5"><path class="cls-6" d="M162 452.3a47.25 47.25 0 11-18-90.91 48.21 48.21 0 016.74.48A47.25 47.25 0 00162 452.3z"/></g><circle class="cls-7" cx="144" cy="410.18" r="47.25"/><circle class="cls-4" cx="439.86" cy="410.18" r="47.25"/><g class="cls-5"><path class="cls-6" d="M423.36 452.3a47.25 47.25 0 1018-90.91 48.21 48.21 0 00-6.74.48 47.25 47.25 0 01-11.31 90.43z"/></g><circle class="cls-7" cx="441.41" cy="410.18" r="47.25"/><path class="cls-4" d="M174.94 538q-4.07-6.33-7.72-13.08c-16.85-31.19-26.7-68.82-26.7-109.33 0-107.79 69.7-195.18 155.68-195.18s155.67 87.4 155.67 195.19-69.7 195.18-155.67 195.18c-39.91 0-76.31-18.83-103.86-49.78"/><g class="cls-5"><path d="M312.5 609.72a126 126 0 01-16.3 1.05c-39.92 0-76.32-18.82-103.86-49.79l-17.4-23q-4.09-6.34-7.73-13.09c-16.85-31.2-26.69-68.82-26.69-109.33 0-107.8 69.69-195.18 155.68-195.18a125.57 125.57 0 0116.26 1.05c-78.33 10.19-139.41 93.2-139.41 194.12 0 40.51 9.84 78.13 26.69 109.33q3.65 6.74 7.73 13.09l17.4 23c23.76 26.73 54.13 44.4 87.63 48.75z" style="fill:#ef997b"/></g><g class="cls-5"><path d="M278.39 608.72a126 126 0 0016.3 1.05C334.6 609.78 371 591 398.55 560l17.4-23q4.09-6.34 7.73-13.09c16.85-31.2 26.69-68.82 26.69-109.33 0-107.8-69.69-195.18-155.68-195.18a125.57 125.57 0 00-16.26 1.05c78.33 10.19 139.41 93.2 139.41 194.12 0 40.51-9.84 78.13-26.69 109.33q-3.65 6.74-7.73 13.09L366 560c-23.75 26.7-54.09 44.37-87.61 48.72z" style="fill:#fcdac3"/></g><path class="cls-7" d="M416.2 294.56c20.42 33 32.58 74.47 32.58 119.49 0 107.79-69.7 195.18-155.68 195.18-39.91 0-76.31-18.83-103.86-49.78M386.26 257.67a174 174 0 0117.85 19.56M171.84 536.47q-4.07-6.33-7.72-13.08c-16.85-31.19-26.7-68.82-26.7-109.33 0-107.79 69.7-195.18 155.68-195.18 25.65 0 49.85 7.78 71.19 21.55"/><path class="cls-10" d="M281.08 387.72a43.37 43.37 0 01-86.75 0"/><path class="cls-1" d="M279.21 387.62a43.37 43.37 0 11-86.75 0h1.36a43.39 43.39 0 0084 0z"/><path class="cls-7" d="M278 387.72a43.37 43.37 0 01-86.75 0"/><circle class="cls-11" cx="233.06" cy="401.66" r="10.84"/><circle class="cls-10" cx="245.46" cy="398.56" r="7.75"/><path class="cls-10" d="M403.46 387.72a43.37 43.37 0 01-86.75 0"/><path class="cls-1" d="M400 387.62a43.37 43.37 0 01-86.75 0h1.36a43.39 43.39 0 0084 0z"/><path class="cls-7" d="M400.36 387.72a43.37 43.37 0 11-86.75 0"/><circle class="cls-11" cx="355.44" cy="401.66" r="10.84"/><circle class="cls-10" cx="367.83" cy="398.56" r="7.75"/><path class="cls-12" d="M108.89 340.21a50 50 0 01-1.71-8.58 50.56 50.56 0 01-.16-8.11 45.27 45.27 0 012.89-13.28 31.43 31.43 0 014.37-8c1.36-1.67 2.38-2.4 2.82-2.14 1 .57-.72 4.78-2 11.6a62 62 0 00-1 12 59.64 59.64 0 00.55 7 55.64 55.64 0 001.6 7.31c.4 1.21.76 2.43 1.21 3.58a27 27 0 001.43 3.15 13.38 13.38 0 001.74 2.56l.47.58.53.52a9.35 9.35 0 001.1 1 27.49 27.49 0 0010.2 4.72c3.33.91 6.22 1.44 8.21 2s3.12 1 3.11 1.58-1.15 1-3.23 1.39a36.81 36.81 0 01-9 .37 31.7 31.7 0 01-6.37-1.1 24 24 0 01-7.12-3.28 14.79 14.79 0 01-1.73-1.33l-.85-.74-.78-.82a19.33 19.33 0 01-2.78-3.69 30.37 30.37 0 01-2-4.07c-.59-1.37-1.03-2.78-1.5-4.22zM137.29 260.49C144 249.27 149.5 240 151.5 240.83c1 .4.82 3.3-.45 7.63a78.09 78.09 0 01-17.71 29.88c-3.19 3.19-5.66 4.71-6.48 4.06-1.66-1.4 3.8-10.65 10.43-21.91zM150.36 180c-3.32-14-7.15-25.25-5.2-26.23.93-.45 3.15 1.86 5.66 6.22a75.14 75.14 0 019.05 37.63c-.25 5-1.17 8.09-2.21 8.11-2.18.04-3.88-11.73-7.3-25.73z"/><path class="cls-2" d="M444.61 469.61c26 26 14.79 78.17 15.55 115l-11.74-13a126.89 126.89 0 01-30.82 61.49 45.3 45.3 0 00-14.28-15.73 95.16 95.16 0 01-29.43 50.17 38.29 38.29 0 00-1.09-31.66 60.36 60.36 0 01-33 36.69 24.83 24.83 0 002.7-23.94c-12 20.29-46.33 20.91-59 1.06-.88 4-.23 9.28 3.86 9.62-17.23 2.65-33-4.61-44.86-17.39a29 29 0 009.61 18.79 52.63 52.63 0 01-43.78-29.08c-22.23 1.38-44.43-13.85-51.15-35.09a10.63 10.63 0 01-2.77 10.18C116 587.24 118.1 499.8 143.26 471c0 0 43.88 33.13 85.07 32.88 25.75-.15 55.88-19.8 85.76-19.93 25-.11 35.94 34.12 52 19.06 42.43-39.88 77.98-33.94 78.52-33.4z"/><path class="cls-3" d="M461 579.41l-11.74-13a127 127 0 01-30.82 61.5 45.32 45.32 0 00-14.28-15.73 95.26 95.26 0 01-29.43 50.18 38.33 38.33 0 00-1.08-31.66 60.34 60.34 0 01-33 36.69 24.83 24.83 0 002.69-23.94c-12 20.3-46.33 20.91-59 1.07-.88 4 .12 18.77 4.22 19.12-17.23 2.65-33.36-14.1-45.22-26.89.68 7.17 2.47 20.1 7.87 24.85-18.36-.94-34.06-18.58-42.05-35.14-22.23 1.39-44.43-13.85-51.15-35.09a10.63 10.63 0 01-2.76 10.18c-13.27-6.74-22-21.38-26.76-38.85 17 12.38 37 20.88 56.73 28.49 13.42 5.16 27 10.08 41.15 12.66 13.72 2.49 27.74 2.75 41.69 3 38.71.67 79 1 114-15.61 10-4.76 20.61-12.93 20.26-24-.4-12.69-14.29-19.93-26.14-24.48 25.24-3.74 45.92-23.31 57.43-46.07a140.7 140.7 0 0010.14-27.06l3.39 2.64c6.78 36.17 13.13 70.33 13.86 107.14z"/><path d="M279.44 484.79l-51.11 19.06-84.11-38.17a63.86 63.86 0 00-12.41 22 243.36 243.36 0 0151 18 250.66 250.66 0 0123.32 12.64c4.12 2.52 12.77 10.78 17.87 10.15a10.52 10.52 0 004.23-1.9c46.77-30.08 81.11-31.4 135.95-21.6l-25.77-15z" style="fill:#d9edf4"/><path class="cls-14" d="M443.74 469.61c17.26 34.62 20.9 71.95 17.26 111.53l-11.74-13a126.89 126.89 0 01-30.82 61.49 45.3 45.3 0 00-14.28-15.73 95.16 95.16 0 01-29.43 50.17 38.29 38.29 0 00-1.09-31.66 60.36 60.36 0 01-33 36.69 24.83 24.83 0 002.7-23.94c-12 20.29-46.33 20.91-59 1.06-.88 4 6 20 2.13 21.75-17-7.82-31.27-16.74-43.13-29.52.69 7.17 2.46 21 7.87 25.72-18.36-.94-34.06-19.45-42.05-36-22.23 1.38-44.43-13.85-51.15-35.09a10.63 10.63 0 01-2.77 10.18c-38.41-19.5-36.36-105.21-11.2-134"/><path d="M261.78 573.43a10.43 10.43 0 01-10.4-10.4v-39.74a10.43 10.43 0 0110.4-10.4h72.77a10.43 10.43 0 0110.4 10.4V563a10.43 10.43 0 01-10.4 10.4" style="fill:#ebcbac"/><path d="M346.68 527.62v12.33a10.43 10.43 0 00-9.53-6.26h-72.77a10.43 10.43 0 00-10.4 10.4v27.41a10.29 10.29 0 01-.87-4.13v-39.75a10.43 10.43 0 0110.4-10.4h72.77a10.43 10.43 0 0110.4 10.4z" style="fill:#d7ad8c"/><path class="cls-17" d="M297.73 509.18c7.51 0 14.84.05 21.92.16l10.42.19 2.54.06H334.76l1.06.08a17.57 17.57 0 017.76 2.86 17.26 17.26 0 017.6 13.23v2.9l-.09 2.26-.2 4.41c-.28 5.79-.59 11.18-.94 16.1s-.73 9.37-1.13 13.28l-.15 1.44-.19 1.61a13.71 13.71 0 01-.95 3.46 13 13 0 01-3.6 4.84 10.45 10.45 0 01-7.27 2.58c-1.75-.16-2.53-.78-2.52-1.27s.76-1 1.87-1.75a11.19 11.19 0 003.55-3.62 8 8 0 001-3 7.12 7.12 0 000-1.68l-.29-2.61c-.41-3.91-.79-8.36-1.13-13.28s-.66-10.31-.94-16.1l-.2-4.41-.09-2.26v-1.54a2 2 0 010-.2 3.62 3.62 0 00-1.85-2.5 3.46 3.46 0 00-1.47-.38l-4.35.1-10.42.19c-7.08.1-14.41.16-21.92.16s-14.84-.05-21.92-.16l-10.42-.19-4.35-.1a3.46 3.46 0 00-1.47.38 3.62 3.62 0 00-1.86 2.5 2 2 0 010 .2V528.66l-.09 2.26-.2 4.41c-.28 5.79-.59 11.18-.94 16.1s-.73 9.37-1.13 13.28l-.29 2.61a7.13 7.13 0 000 1.68 8 8 0 001 3 11.2 11.2 0 003.55 3.62c1.1.73 1.87 1.19 1.87 1.75s-.78 1.11-2.52 1.27a10.45 10.45 0 01-7.27-2.58 13 13 0 01-3.6-4.84 13.71 13.71 0 01-.95-3.46l-.19-1.61-.15-1.44c-.41-3.91-.79-8.36-1.13-13.28s-.66-10.31-.94-16.1l-.2-4.41-.09-2.26v-2.9a17.26 17.26 0 017.6-13.23 17.57 17.57 0 017.76-2.86l1.06-.08h2.15l2.54-.06 10.42-.19c6.75-.11 14.08-.16 21.59-.16z"/><path class="cls-17" d="M302.86 552.58a54.43 54.43 0 005.71-1.73 48 48 0 005-2.23 39.67 39.67 0 007.71-5.1c2-1.73 3.52-3.4 4.81-4.61s2.25-2 3.11-1.78 1.44 1.34 1.56 3.45a17.79 17.79 0 01-2.29 8.39 29.29 29.29 0 01-8.6 9.58 38.08 38.08 0 01-6.48 3.82 42.55 42.55 0 01-7.57 2.62c-1.33.33-2.67.56-4 .77s-2.65.32-3.9.37a47.38 47.38 0 01-7.23-.2A41.23 41.23 0 01279 563a23.64 23.64 0 01-7-4.26c-1.44-1.37-2-2.56-1.64-3.35.75-1.65 4.79-1.39 10.66-1.18 2.94.11 6.36.18 10.08 0 1.86-.1 3.8-.26 5.79-.51 1-.11 2-.3 2.95-.45s2.03-.42 3.02-.67zM155.46 490.33A39.37 39.37 0 00156 500a41 41 0 003.15 9.52 42.44 42.44 0 01-5.84-8.6 43.67 43.67 0 01-3.52-10.15 47.59 47.59 0 01-1-11c0-.93.08-1.86.14-2.79s.15-1.87.31-2.81a36.46 36.46 0 011.21-5.8l10.41 4.56a25.27 25.27 0 00-2 3.8c-.33.69-.58 1.41-.87 2.12l-.76 2.2a40.47 40.47 0 00-1.77 9.28zM171.41 499.11c.85 7.6 4.25 15.18 9.15 21.74a48.54 48.54 0 01-14.67-20.41 39.56 39.56 0 01-2.34-13.25 35.77 35.77 0 012.72-13.91l10 5.38c-3.95 5.34-5.73 12.92-4.86 20.45zM200.42 504.82a52.28 52.28 0 007.09 20.82 55.13 55.13 0 01-12.6-19.43 57.85 57.85 0 01-3.79-24l11.2 1.92a49.27 49.27 0 00-1.9 20.69zM389.49 500.65a28 28 0 01-.29 9c-.5 2.28-1.27 3.62-2 3.56-1.43-.14-2-5.52-2.82-12s-1.38-11.76-.03-12.21c.66-.22 1.72.9 2.74 3a28 28 0 012.4 8.65zM413.62 499.69a36.83 36.83 0 01-2.43 12.46c-1.23 3-2.53 4.66-3.17 4.43-1.37-.52.31-7.91.5-17s-1-16.59.39-17c.65-.19 1.87 1.5 2.94 4.59a36.83 36.83 0 011.77 12.52zM436.93 497a55.34 55.34 0 01.52 9.45 45.63 45.63 0 01-.89 7.66c-.91 4.3-2.14 6.77-2.8 6.63-1.47-.31 0-10.64-1.89-23s-5.89-22-4.54-22.67c.6-.31 2.44 1.74 4.48 5.63a47.93 47.93 0 013 7.1 57.59 57.59 0 012.12 9.2zM164.59 595.73a42.25 42.25 0 01-.27-8.85 35.84 35.84 0 01.53-3.82 26.8 26.8 0 01.8-3.26c1.21-3.93 2.72-6 3.34-5.81s.45 2.69.21 6.47c-.06.95-.13 2-.14 3.08s0 2.28 0 3.51a62.81 62.81 0 002.26 15.79c.35 1.18.65 2.32 1 3.36s.68 2 1 2.92c1.29 3.56 2.22 5.84 1.61 6.27s-2.57-1.21-4.84-4.65a26.73 26.73 0 01-1.68-2.91 35.79 35.79 0 01-1.58-3.52 42.25 42.25 0 01-2.24-8.58zM197.49 609.93a54.89 54.89 0 01-.09-14.27c.47-3.6 1.18-5.78 1.87-5.77s1.28 2.24 1.74 5.77.81 8.37 1.53 13.54c.38 2.58.84 5 1.34 7.18.3 1.07.52 2.12.83 3.06l.4 1.38.43 1.26c1.09 3.22 2 5.28 1.36 5.73s-2.5-1-4.6-4.13l-.79-1.26c-.25-.45-.49-.93-.74-1.43a32.2 32.2 0 01-1.4-3.26 42.34 42.34 0 01-1.88-7.8zM236.71 616.79c-4.33-15.35-4.94-28.35-3.58-28.52s4.28 12.17 8.5 27.14 8.17 27 6.83 27.61-7.46-10.87-11.75-26.23zM346.34 623.13c1.94-6.48 3.3-12.56 4.5-17s2.2-7.12 2.9-7 .94 3 .66 7.6a81.29 81.29 0 01-3.17 17.86 60.46 60.46 0 01-3.75 9.43c-.76 1.38-1.45 2.7-2.24 3.86-.39.58-.75 1.15-1.13 1.68l-1.15 1.47c-3 3.7-5.58 5.28-6 4.83s1-2.91 3-6.82l.8-1.53.8-1.69c.58-1.15 1.08-2.45 1.67-3.76a130.5 130.5 0 003.11-8.93zM376.89 610.42c1.38-7.88 2.09-15.29 3-20.62s1.84-8.6 2.54-8.54 1.06 3.43 1.06 8.84a126.52 126.52 0 01-1.62 21.21 61.86 61.86 0 01-3.15 11.54 43.31 43.31 0 01-4.52 8.74c-3.21 4.66-6.17 6.64-6.63 6.19s1.33-3.26 3.49-8a69.42 69.42 0 003.21-8.5 91.9 91.9 0 002.62-10.86zM414 597.91c1.53-6.39 2.57-12.34 3.55-16.65s1.85-7 2.56-6.92 1.08 2.86 1 7.33a81.07 81.07 0 01-2.17 17.44 61.49 61.49 0 01-3.08 9.33c-.64 1.38-1.22 2.7-1.91 3.87-.33.59-.64 1.16-1 1.7l-1 1.51c-2.65 3.79-5 5.54-5.48 5.13s.65-2.93 2.32-6.87l.65-1.55.65-1.7c.48-1.16.88-2.44 1.36-3.77.87-2.68 1.73-5.66 2.55-8.85z"/><path class="cls-17" d="M424.42 588.28c1.66-4 3-8 4.13-11.62.51-1.83 1.05-3.56 1.44-5.21s.79-3.18 1.12-4.59c1.28-5.65 2-9.25 2.7-9.22s1.27 3.73.87 9.75c-.11 1.5-.26 3.15-.54 4.9s-.63 3.62-1 5.57a78.08 78.08 0 01-9.93 23.93c-1.09 1.67-2.12 3.27-3.21 4.67s-2.1 2.71-3.09 3.84c-4 4.54-7 6.72-7.52 6.27s1.53-3.53 4.62-8.43c.77-1.23 1.62-2.56 2.46-4s1.74-3 2.67-4.7c1.75-3.38 3.59-7.12 5.28-11.16z"/><path class="cls-18" d="M137 509.24c.76-3.74 2.77-6.36 4.11-5.94s1.6 3.5.9 7-2.17 6.21-3.58 6.05-2.17-3.35-1.43-7.11zM138.33 549.64a54.36 54.36 0 01-1.95-15.24c.12-3.95.78-6.35 1.46-6.36 1.47 0 2.42 9.33 5.42 20.26s6.83 19.45 5.58 20.21c-.59.34-2.39-1.39-4.5-4.73a53.49 53.49 0 01-6.01-14.14z"/><path class="cls-14" d="M442.82 467.33A165.7 165.7 0 00371 498.45c-3.11 2.36-6.43 4.93-10.32 5.07-4.14.15-7.78-2.48-11.25-4.75a88.22 88.22 0 00-21-10.34c-7.89-2.54-16.26-3.27-24.5-3.47s-16.56-.42-24.68.2a82.67 82.67 0 00-20.63 4.06 87.16 87.16 0 00-19.26 9.55c-3.47 2.26-7.11 4.89-11.25 4.75-3.9-.14-7.22-2.72-10.32-5.07a165.7 165.7 0 00-71.82-31.12"/><path d="M228.33 503.85L263.97 487.62" style="fill:#ce956e"/><path class="cls-3" d="M219.34 122.68a55.94 55.94 0 0129.93 12.77c.6-22.61-11.09-43.51-22.43-63.08A20.72 20.72 0 01250 76.94a162.61 162.61 0 00-14.86-54.86c-4.94 2.27-6.38 8.48-7.16 13.85a673.21 673.21 0 00-6.9 86.47"/><path class="cls-12" d="M248.91 75a148.5 148.5 0 0116.63 15.51 144.21 144.21 0 00-20.85-8.11 139.78 139.78 0 00-21.24-4.65l6.15-15.9A152.75 152.75 0 01248.91 75zM246.73 129.61c7.6 7.08 14.49 15.09 19.26 24-7.16-7.34-15.61-12.79-24.45-17.26s-18.17-8-27.69-11.66l8.85-14.58c8.1 6.13 16.42 12.4 24.03 19.5zM41.67 334.64c5.88-2.52 11.18-5.31 15.27-7.08s6.9-2.54 7.48-1.65-1.16 3.21-4.57 6.22a58.45 58.45 0 01-15.18 9.57c-6.61 2.85-13.35 3.82-18.13 3.34s-7.5-2-7.33-3 2.94-1.5 7-2.42a86.51 86.51 0 0015.46-4.98z"/><path class="cls-3" d="M292 123.06A73 73 0 01312.67 143a111.15 111.15 0 0010.74-54.92l7.34 11.35A218.87 218.87 0 00342 35.73c.18-6.89-.08-14.2-3.84-20a574.49 574.49 0 00-39.41 98"/><path class="cls-12" d="M329.81 92.79a148.49 148.49 0 018.38 21.15 144.21 144.21 0 00-15.36-16.27 139.76 139.76 0 00-17.2-13.31L318 72.64a152.73 152.73 0 0111.81 20.15zM314.81 132.79a148.49 148.49 0 018.38 21.15 144.21 144.21 0 00-15.36-16.27 139.76 139.76 0 00-17.2-13.31L303 112.64a152.73 152.73 0 0111.81 20.15z"/><path class="cls-3" d="M400 125.72l3.05 20.6a98.07 98.07 0 0040.39-35 165.29 165.29 0 011.82 34.87c18.29-2.58 31.49-18.24 42.86-32.79 3.7-4.74 7.52-9.73 8.59-15.65"/><path class="cls-12" d="M405.83 140.91a148.49 148.49 0 01-4.13 22.37 144.24 144.24 0 00-4.38-21.94 139.8 139.8 0 00-7.51-20.41l16.71-3.37a152.75 152.75 0 01-.69 23.35zM448.83 134.91a148.49 148.49 0 01-4.13 22.37 144.24 144.24 0 00-4.38-21.94 139.8 139.8 0 00-7.51-20.41l16.71-3.37a152.75 152.75 0 01-.69 23.35z"/><path class="cls-3" d="M464.55 183.7a38 38 0 01-28.72 20.79c5 2.49 10.14 5 15.66 6 10.25 1.84 20.63-1.73 30.28-5.63 2.76-1.11 5.91-2.76 6.27-5.71.26-2.14-1.18-4.2-3-5.33a17.78 17.78 0 00-6.15-1.91c-5.36-1-11-2.31-14.88-6.17M549.55 205.7a38 38 0 01-28.72 20.79c5 2.49 10.14 5 15.66 6 10.25 1.84 20.63-1.73 30.28-5.63 2.76-1.11 5.91-2.76 6.27-5.71.26-2.14-1.18-4.2-3-5.33a17.78 17.78 0 00-6.15-1.91c-5.36-1-11-2.31-14.88-6.17"/><path class="cls-12" d="M448.64 203.38a148.49 148.49 0 01-22 5.87 144.21 144.21 0 0017.94-13.38 139.79 139.79 0 0015.21-15.54L470 194a152.72 152.72 0 01-21.36 9.38z"/><path class="cls-7" d="M78.71 199.41l45.52-11.52-35.68-83.27a7.19 7.19 0 018.74-9.7l119.89 37.21 15.1-120.83a7.19 7.19 0 0113.82-1.75l46.43 116.84M38.24 364.79l-19.12-11.15a7.19 7.19 0 01-1.52-11.24L72 286.75a7.19 7.19 0 00-.88-10.82L7.93 229.45a7.19 7.19 0 012.5-12.76l44.73-11.32M141.67 459l-75.42 5.37a7.19 7.19 0 01-7.12-10L83 398.2a7.19 7.19 0 00-3-9l-26.17-15.31M359.19 53.51l-5.27-42.21a7.19 7.19 0 00-13.82-1.75l-47.43 116.84M490.47 195.11L462 187.9l35.69-83.27a7.19 7.19 0 00-8.74-9.7L369 132.13l-6.09-48.76M511.25 417.2l-8.09-19a7.19 7.19 0 013-9l60.92-35.54a7.19 7.19 0 001.52-11.23l-54.39-55.65a7.19 7.19 0 01.88-10.82l63.17-46.49a7.19 7.19 0 00-2.5-12.76L533.69 206l-16.76-4.24M446.83 455.88l73.12 8.47a7.19 7.19 0 007.12-10l-7.48-17.57"/><path class="cls-12" d="M530.64 225.38a148.49 148.49 0 01-22 5.87 144.21 144.21 0 0017.94-13.38 139.79 139.79 0 0015.21-15.54L552 216a152.72 152.72 0 01-21.36 9.38z"/><path class="cls-10" d="M350.55 248.54a42 42 0 017.24 3.77 31.91 31.91 0 015.16 4.21c2.66 2.74 3.69 5 3 5.76s-2.95.06-6.13-1.33l-5.47-2.47c-2-.9-4.28-1.87-6.65-2.83s-4.67-1.77-6.77-2.52l-5.67-2c-3.27-1.17-5.41-2.17-5.36-3.25s2.34-2 6.15-2.11a31.91 31.91 0 016.64.5 41.94 41.94 0 017.86 2.27zM387.87 278.37a26.41 26.41 0 014.24 10.33c.43 2.88 0 4.8-1 5.11s-2.39-1-4-3-3.49-5-5.6-8.13-4.06-6-5.38-8.27-2-4-1.3-4.85 2.6-.49 5.11 1a26.41 26.41 0 017.93 7.81zM513.06 362.54c7.17-4.16 14-5.44 14.87-3.54s-4.19 6.2-11 10.17-13.09 6.23-14.32 4.49 3.27-6.98 10.45-11.12z"/><ellipse class="cls-10" cx="543.85" cy="350.52" rx="5.22" ry="3.83" transform="rotate(-26.49 543.956 350.547)"/><ellipse class="cls-10" cx="513.36" cy="253.47" rx="11.08" ry="3.83" transform="rotate(-43.93 513.314 253.469)"/><path class="cls-10" d="M222.9 474a12.54 12.54 0 016.13 4.21c1.17 1.61 1.35 3.07.67 3.86s-2.05.89-3.66.66a45.65 45.65 0 01-10.88-3.6c-1.43-.77-2.48-1.64-2.55-2.71s.94-2.1 2.84-2.7a12.54 12.54 0 017.45.28zM262.35 467.89a49.09 49.09 0 018.52-.84 37.07 37.07 0 017 .59c3.93.75 6.21 2 6.1 3s-2.51 1.75-6.16 2.39c-1.83.31-4 .66-6.35 1s-4.94.82-7.64 1.33-5.25 1.08-7.59 1.58-4.46 1-6.28 1.38c-3.63.75-6.11 1-6.61.05s1.17-2.92 4.55-5.06a37.07 37.07 0 016.26-3.12 49.09 49.09 0 018.2-2.3z"/><path class="cls-20" d="M312.3 359.24H401.3V369.24H312.3z"/><path class="cls-7" d="M312.3 359.24L401.3 359.24"/><path class="cls-20" d="M187.3 359.24H276.3V369.24H187.3z"/><path class="cls-7" d="M187.3 359.24L276.3 359.24M113.3 415.55a22.64 22.64 0 0123-12.58M473.26 415.55a22.64 22.64 0 00-23-12.58"/></g></g></svg>