<svg xmlns="http://www.w3.org/2000/svg" viewBox="0 0 60 60" enable-background="new 0 0 60 60"><path d="M30 0a1 1 0 00-1 1v6a1 1 0 002 0V1a1 1 0 00-1-1zM30 52a1 1 0 00-1 1v6a1 1 0 002 0v-6a1 1 0 00-1-1zM59 29h-6a1 1 0 000 2h6a1 1 0 000-2zM8 30a1 1 0 00-1-1H1a1 1 0 000 2h6a1 1 0 001-1zM46.264 14.736a.997.997 0 00.707-.293l5.736-5.736a.999.999 0 10-1.414-1.414l-5.736 5.736a.999.999 0 00.707 1.707zM13.029 45.557l-5.736 5.736a.999.999 0 101.414 1.414l5.736-5.736a.999.999 0 10-1.414-1.414zM46.971 45.557a.999.999 0 10-1.414 1.414l5.736 5.736a.997.997 0 001.414 0 .999.999 0 000-1.414l-5.736-5.736zM8.707 7.293a.999.999 0 10-1.414 1.414l5.736 5.736a.997.997 0 001.414 0 .999.999 0 000-1.414L8.707 7.293zM50.251 21.404a1.001 1.001 0 001.311.53l2.762-1.172a1 1 0 00-.781-1.841l-2.762 1.172a1 1 0 00-.53 1.311zM9.749 38.596a1 1 0 00-1.311-.53l-2.762 1.172a1 1 0 00.781 1.841l2.762-1.172a1 1 0 00.53-1.311zM54.481 38.813L51.7 37.688a1 1 0 00-.749 1.855l2.782 1.124a1 1 0 10.748-1.854zM5.519 21.188L8.3 22.312a1 1 0 10.749-1.855l-2.782-1.124a1 1 0 10-.748 1.855zM39.907 50.781a1.001 1.001 0 00-1.841.781l1.172 2.762a1.001 1.001 0 001.311.53 1 1 0 00.53-1.311l-1.172-2.762zM21.014 9.829a1 1 0 00.92-1.391l-1.172-2.762a1 1 0 00-1.841.781l1.172 2.762a1 1 0 00.921.61zM21.759 50.398a1.002 1.002 0 00-1.302.553l-1.124 2.782a1 1 0 001.855.749l1.124-2.782a1 1 0 00-.553-1.302zM38.615 9.675a1 1 0 00.928-.626l1.124-2.782a1 1 0 00-1.855-.749L37.688 8.3a1 1 0 00.927 1.375z" fill="#F0C419"/><circle cx="30" cy="30" r="20" fill="#F0C419"/><circle cx="30" cy="30" r="15" fill="#EDE21B"/></svg>