<svg xmlns="http://www.w3.org/2000/svg" viewBox="0 0 445 271.8"><defs><style>.cls-3{fill:#fff}.cls-4{fill:#426572}</style></defs><g id="Layer_2" data-name="Layer 2"><g id="Layer_1-2" data-name="Layer 1"><rect x="6" y="8.17" width="433" height="259.8" rx="12" ry="12" style="fill:#32caf8"/><path d="M439 21.16V255a13 13 0 01-13 13H28.72l381-259.8H426a13 13 0 0113 12.96z" style="fill:#00aaf8;opacity:.5"/><path class="cls-3" d="M328 33.24h88.92c3.86 0 3.87-6 0-6H328c-3.86 0-3.87 6 0 6zM283.49 33.24h29.11c3.86 0 3.87-6 0-6h-29.11c-3.86 0-3.87 6 0 6z"/><path class="cls-4" d="M427 271.8H18a18 18 0 01-18-18V18A18 18 0 0118 0h409a18 18 0 0118 18v235.8a18 18 0 01-18 18zM18 12a6 6 0 00-6 6v235.8a6 6 0 006 6h409a6 6 0 006-6V18a6 6 0 00-6-6z"/><path class="cls-4" d="M37.89 125.08H49.89V145.65H37.89zM55.93 125.08H67.93V145.65H55.93zM73.97 125.08H85.97V145.65H73.97zM92.01 125.08H104.01V145.65H92.01zM118.71 125.08H130.70999999999998V145.65H118.71zM136.76 125.08H148.76V145.65H136.76zM154.8 125.08H166.8V145.65H154.8zM172.84 125.08H184.84V145.65H172.84zM199.54 125.08H211.54V145.65H199.54zM217.58 125.08H229.58V145.65H217.58zM235.63 125.08H247.63V145.65H235.63zM253.67 125.08H265.66999999999996V145.65H253.67zM280.37 125.08H292.37V145.65H280.37zM298.41 125.08H310.41V145.65H298.41zM316.45 125.08H328.45V145.65H316.45zM334.49 125.08H346.49V145.65H334.49zM43.89 177.53H205.18V189.53H43.89zM43.89 204.59H112.09V216.59H43.89z"/><circle class="cls-3" cx="379.46" cy="207.35" r="23.82"/><rect class="cls-3" x="43.89" y="36.31" width="72.53" height="47.63" rx="12" ry="12"/><path class="cls-4" d="M104.42 88.86H55.89a18 18 0 01-18-18V47.23a18 18 0 0118-18h48.53a18 18 0 0118 18v23.63a18 18 0 01-18 18zM55.89 41.23a6 6 0 00-6 6v23.63a6 6 0 006 6h48.53a6 6 0 006-6V47.23a6 6 0 00-6-6zM379.46 241.49a29.81 29.81 0 1129.82-29.82 29.85 29.85 0 01-29.82 29.82zm0-47.63a17.81 17.81 0 1017.82 17.81 17.84 17.84 0 00-17.82-17.81z"/></g></g></svg>