<svg xmlns="http://www.w3.org/2000/svg" viewBox="0 0 419.23 419.23"><defs><style>.cls-3{fill:#426572}.cls-4,.cls-9{fill:#fff}.cls-5{fill:#e8e8e8}.cls-9{opacity:.4}</style></defs><g id="Layer_2" data-name="Layer 2"><g id="Layer_1-2" data-name="Layer 1"><circle cx="210.66" cy="209.62" r="203.61" style="fill:#fbc907"/><path d="M27.21 209.62A203.61 203.61 0 01220.72 6.26q-5-.25-10.08-.25C98.19 4.86 6.11 95.09 5 207.54s89.05 204.53 201.5 205.67h4.13q5.06 0 10.08-.25a203.61 203.61 0 01-193.5-203.34z" style="fill:#f3a70f"/><path class="cls-3" d="M209.61 419.23C94 419.23 0 325.19 0 209.61S94 0 209.61 0s209.62 94 209.62 209.61-94.04 209.62-209.62 209.62zm0-407.23C100.65 12 12 100.65 12 209.61s88.65 197.61 197.61 197.61 197.61-88.65 197.61-197.61S318.58 12 209.61 12z"/><path class="cls-4" d="M111.69 60.1a195 195 0 0141.08-21.2c3.59-1.34 2-7.14-1.6-5.79a201.47 201.47 0 00-42.51 21.8c-3.18 2.15-.18 7.35 3 5.18zM35.09 160.61c3.09-10.2 8-20 13.05-29.32a212.37 212.37 0 0147.73-59.11c2.93-2.52-1.33-6.75-4.24-4.24A217.08 217.08 0 0043 128.26C37.63 138 32.54 148.34 29.31 159c-1.12 3.7 4.67 5.29 5.79 1.6z"/><circle class="cls-5" cx="211.45" cy="212.12" r="156.89"/><path d="M67.05 232.07a156.89 156.89 0 01283.33-92.82A156.91 156.91 0 1085 304.92a156.19 156.19 0 01-17.95-72.85z" style="fill:#dadada"/><path class="cls-5" d="M211.32 152.25a9.16 9.16 0 019.16 9.16v49.09a9.16 9.16 0 01-9.16 9.16 9.16 9.16 0 01-9.16-9.16v-49.09a9.16 9.16 0 019.16-9.16z"/><circle class="cls-5" cx="211.14" cy="221.32" r="15.94"/><path class="cls-3" d="M210.48 92.62c6.29 0 6.29-9.77 0-9.77s-6.29 9.77 0 9.77zM210.48 343.89c6.29 0 6.29-9.77 0-9.77s-6.29 9.77 0 9.77zM339.84 218.25c6.29 0 6.29-9.77 0-9.77s-6.29 9.77 0 9.77zM81.13 218.25c6.29 0 6.29-9.77 0-9.77s-6.29 9.77 0 9.77zM205.56 153.32a9.16 9.16 0 019.16 9.16v49.09a9.16 9.16 0 01-9.16 9.16 9.16 9.16 0 01-9.16-9.16v-49.08a9.16 9.16 0 019.16-9.17z"/><circle class="cls-3" cx="205.38" cy="221.15" r="15.94"/><path class="cls-3" d="M135.78 272.58l135.16-89.89L290.11 170c5.22-3.46.33-11.94-4.92-8.44L150 251.4l-19.17 12.74c-5.19 3.46-.31 11.94 4.95 8.44z"/><g style="opacity:.1"><ellipse cx="210.2" cy="211.21" rx="156.89" ry="154.23" style="fill:#55e0ff"/></g><path class="cls-9" d="M243.13 60.17L84.37 301.88a162.18 162.18 0 01-18.58-47.29L193.5 60.21a153.88 153.88 0 0149.67 0zM289.69 72.6L115.93 325.78a155.09 155.09 0 01-14.77-15L270 64.76a155.38 155.38 0 0119.69 7.84zM362.16 171.75L232.51 360.68a160.93 160.93 0 01-42.54.43l156.66-228.27a151.63 151.63 0 0115.53 38.91z"/><path class="cls-3" d="M210.12 369.75c-89.82 0-162.89-71.88-162.89-160.23S120.31 49.29 210.12 49.29 373 121.17 373 209.52s-73.06 160.23-162.88 160.23zm0-308.46c-83.2 0-150.89 66.5-150.89 148.23s67.69 148.23 150.89 148.23S361 291.25 361 209.52 293.32 61.29 210.12 61.29z"/></g></g></svg>